<?xml version="1.0" standalone="no"?>
<!DOCTYPE svg PUBLIC "-//W3C//DTD SVG 20010904//EN"
 "http://www.w3.org/TR/2001/REC-SVG-20010904/DTD/svg10.dtd">
<svg version="1.0" xmlns="http://www.w3.org/2000/svg"
 width="506.000000pt" height="506.000000pt" viewBox="0 0 506.000000 506.000000"
 preserveAspectRatio="xMidYMid meet">

<g transform="translate(0.000000,506.000000) scale(0.100000,-0.100000)"
fill="#000000" stroke="none">
<path d="M2310 4960 c-261 -22 -544 -92 -783 -191 -283 -118 -520 -274 -741
-489 -421 -409 -667 -922 -731 -1523 -17 -170 -19 -275 -5 -442 52 -625 265
-1090 700 -1526 306 -306 618 -501 1015 -632 506 -168 1032 -167 1543 2 293
96 541 230 775 418 105 84 208 184 201 195 -3 5 0 7 7 6 7 -2 14 4 14 12 0 8
6 14 12 13 16 -3 114 107 107 119 -4 6 -3 8 3 5 15 -9 57 39 48 54 -5 7 -4 10
3 5 10 -6 63 56 130 156 34 49 39 64 20 52 -7 -4 -8 -3 -4 5 4 6 11 9 16 6 12
-7 53 62 44 76 -4 7 -3 9 3 6 14 -9 97 149 87 165 -4 6 -3 8 3 5 13 -8 86 156
87 195 1 14 4 24 8 22 13 -8 76 221 107 391 103 568 5 1146 -281 1658 -35 63
-64 104 -70 100 -7 -3 -8 -1 -4 5 14 23 -155 246 -292 386 -398 405 -891 650
-1467 730 -136 19 -427 27 -555 16z m-767 -631 c68 -35 174 -127 262 -229 85
-98 185 -235 185 -254 0 -6 -14 -19 -30 -28 -33 -19 -41 -55 -14 -65 8 -3 70
7 137 22 96 22 156 29 284 33 239 7 405 -18 636 -97 66 -23 94 -28 112 -21 13
5 80 65 147 133 217 218 412 357 501 357 152 0 235 -390 196 -920 -17 -236
-16 -255 27 -430 121 -492 123 -866 5 -1219 -145 -432 -491 -745 -974 -880
-178 -50 -311 -64 -542 -58 -334 10 -593 76 -857 220 -399 218 -650 561 -713
977 -47 305 5 634 153 976 157 362 349 591 691 827 23 16 41 36 41 47 0 71
-256 410 -310 410 -48 0 -109 -291 -110 -523 l0 -107 90 74 c133 111 282 207
298 192 7 -7 9 -5 -59 -38 -87 -41 -248 -168 -348 -274 l-90 -96 -8 38 c-14
69 -7 401 11 509 35 209 87 347 156 409 46 42 65 44 123 15z m3454 -1621 c-3
-8 -6 -5 -6 6 -1 11 2 17 5 13 3 -3 4 -12 1 -19z"/>
<path d="M3638 3932 c-110 -88 -285 -292 -317 -371 -7 -17 -11 -41 -7 -53 6
-24 288 -316 369 -382 26 -22 53 -36 61 -33 57 22 93 539 52 741 -18 90 -44
150 -67 154 -9 2 -50 -24 -91 -56z"/>
<path d="M1533 2970 c-55 -12 -97 -44 -130 -100 -28 -47 -33 -63 -33 -120 1
-233 235 -288 355 -84 28 47 34 138 14 191 -12 31 -54 79 -84 96 -30 16 -86
24 -122 17z m111 -132 c21 -29 20 -57 -1 -80 -34 -38 -103 -11 -103 40 0 57
73 85 104 40z"/>
<path d="M2617 2825 c-21 -8 -61 -31 -88 -51 -49 -35 -139 -137 -139 -155 0
-50 85 -155 155 -191 55 -29 149 -35 213 -14 181 60 250 237 139 355 -47 49
-100 71 -177 70 -36 0 -82 -7 -103 -14z m127 -86 c32 -25 33 -55 4 -86 -25
-27 -54 -29 -86 -7 -28 19 -29 67 -2 94 26 26 51 25 84 -1z"/>
<path d="M1477 2376 c-62 -17 -96 -43 -125 -95 -67 -118 15 -297 164 -361 l46
-20 -7 -58 c-4 -31 -10 -61 -15 -66 -19 -19 -104 -7 -167 24 -66 33 -85 56
-112 143 -20 59 -61 43 -61 -24 0 -77 62 -173 142 -219 68 -39 210 -83 373
-117 108 -22 158 -26 300 -27 154 -1 176 1 234 22 124 45 251 145 251 199 0
22 -29 53 -51 53 -8 0 -50 -27 -94 -60 -44 -33 -100 -67 -125 -75 -160 -55
-385 -28 -526 63 -58 38 -59 39 -62 90 l-3 51 43 12 c64 17 110 43 159 91 114
111 118 262 8 335 -72 48 -264 68 -372 39z"/>
<path d="M3772 1580 c-61 -109 -157 -226 -265 -321 -115 -102 -135 -122 -77
-78 82 63 203 183 262 262 57 78 134 205 127 211 -2 2 -24 -31 -47 -74z"/>
<path d="M3359 1133 c-13 -16 -12 -17 4 -4 16 13 21 21 13 21 -2 0 -10 -8 -17
-17z"/>
</g>
</svg>
